<?xml version="1.0" encoding="utf-8" ?>
<!-- Svg Vector Icons : http://www.onlinewebfonts.com/icon -->
<!DOCTYPE svg PUBLIC "-//W3C//DTD SVG 1.1//EN"
  "http://www.w3.org/Graphics/SVG/1.1/DTD/svg11.dtd">
<svg
  version="1.1"
  xmlns="http://www.w3.org/2000/svg"
  xmlns:xlink="http://www.w3.org/1999/xlink"
  x="0px"
  y="0px"
  viewBox="0 0 256 256"
  enable-background="new 0 0 256 256"
  xml:space="preserve"
>
<metadata> Svg Vector Icons : http://www.onlinewebfonts.com/icon </metadata>
<g><g><path
        fill="#000000"
        d="M196.7,68.1l-72.1-41.7c-9.6-5.5-22.9-2-28.4,7.6L12.8,178.4c-5.8,9.9-2.3,22.7,7.6,28.5l44.1,25.3l60.5-0.2l79.3-135.3C210,86.6,206.6,73.9,196.7,68.1L196.7,68.1z M117.1,218l-48.8,0.2l-40.9-23.4c-3.3-1.9-4.5-6.2-2.5-9.5L63,119.2l83.7,48.3L117.1,218L117.1,218z M192.3,89.6l-38.6,66l-83.8-48.4L108.1,41c1.2-2.1,3.6-3.5,6-3.5c1.2,0,2.4,0.3,3.5,0.9l72.1,41.7C193,82,194.2,86.3,192.3,89.6L192.3,89.6z M246,218v13.9h-97.2V218H246z"
      /></g></g>
</svg>
