<?xml version="1.0" encoding="utf-8"?>
<!-- Svg Vector Icons : http://www.onlinewebfonts.com/icon -->
<!DOCTYPE svg PUBLIC "-//W3C//DTD SVG 1.1//EN" "http://www.w3.org/Graphics/SVG/1.1/DTD/svg11.dtd">
<svg version="1.1" xmlns="http://www.w3.org/2000/svg" xmlns:xlink="http://www.w3.org/1999/xlink" x="0px" y="0px" viewBox="0 0 256 256" enable-background="new 0 0 256 256" xml:space="preserve">
<metadata> Svg Vector Icons : http://www.onlinewebfonts.com/icon </metadata>
<g><g><g><path fill="#000000" d="M182.7,11.4c-5.4,1.7-12.5,6.5-18,12.2l-4.2,4.4l33.4,33.6l33.5,33.5l4.6-4.6c13.7-13.3,17.6-29.3,10.3-43.9c-3.2-6.6-26.6-30-33.5-33.5C203,10,189.4,9.1,182.7,11.4z"/><path fill="#000000" d="M147.1,41.3l-3.6,3.7l33.4,33.5l33.6,33.6l4.3-4.3l4.3-4.3l-33-33c-18.1-18.2-33.5-33-34.1-33C151.2,37.6,149.1,39.3,147.1,41.3z"/><path fill="#000000" d="M88.4,100.2l-46.2,46.6l-16.4,49.3c-8.9,27.1-16.1,49.4-15.8,49.7c0.2,0.2,22.8-7.1,50.1-16.3l49.7-16.8l46-46l46.1-46.1l-4.3-4.3l-4.3-4.3l-45.3,45.3L103,202.5l2.4,2.7c2,2.1,2.2,2.9,1.1,3.3c-4.6,1.7-55.9,18.6-56.6,18.6c-0.4,0-1.5-1.7-2.4-3.6c-2.3-4.9-11.4-14-15.8-15.7c-1.9-0.7-3.5-1.4-3.6-1.5c-0.4-0.2,18.7-57.2,19.4-57.9c0.3-0.2,1.6,0.5,3,1.8l2.4,2.2l45.2-45.2l45.3-45.3l-4.4-4.3l-4.3-4.4L88.4,100.2z"/><path fill="#000000" d="M109,118.8L64,163.9l4.2,4l4.2,4l45.6-45.3l45.7-45.3l-3.6-3.8c-2-2.1-4.3-3.8-4.9-3.8C154.5,73.8,133.8,94,109,118.8z"/><path fill="#000000" d="M129,138.2l-45.3,45.3l4,3.9l3.9,4l45.5-45.5l45.5-45.5l-3.6-3.8c-2-2-3.8-3.7-4.3-3.7C174.5,92.9,153.9,113.3,129,138.2z"/></g></g></g>
</svg>